# AST/ASF file generated using VICON BodyLanguage
# -----------------------------------------------
:version 1.10
:name VICON
:units
  mass 1.0
  length 0.45
  angle deg
:documentation
   .ast/.asf automatically generated from VICON data using
   VICON BodyBuilder and BodyLanguage model FoxedUp or BRILLIANT.MOD
:root
   order TX TY TZ RX RY RZ
   axis XYZ
   position 0 0 0  
   orientation 0 0 0 
:bonedata
  begin
     id 1 
     name lhipjoint
     direction 0.440178 -0.822639 0.359871 
     length 2.53113 
     axis 0 0 0  XYZ
  end
  begin
     id 2 
     name lfemur
     direction 0.34202 -0.939693 0  
     length 7.88132  
     axis 0 0 20  XYZ
    dof rx ry rz
    limits (-160.0 20.0)
           (-70.0 70.0)
           (-60.0 70.0)
  end
  begin
     id 3 
     name ltibia
     direction 0.34202 -0.939693 0   
     length 8.43783   
     axis 0 0 20   XYZ
    dof rx
    limits (-10.0 170.0)
  end
  begin
     id 4 
     name lfoot
     direction 0.0886351 -0.243523 0.965837   
     length 2.63414   
     axis -90 7.62852e-016 20   XYZ
    dof rx rz
    limits (-45.0 90.0)
           (-70.0 20.0)
  end
  begin
     id 5 
     name ltoes
     direction 1.53703e-011 -4.21717e-011 1   
     length 1.31427   
     axis -90 7.62852e-016 20   XYZ
    dof rx
    limits (-90.0 20.0)
  end
  begin
     id 6 
     name rhipjoint
     direction -0.399779 -0.839773 0.367367   
     length 2.47948  
     axis 0 0 0  XYZ 
  end
  begin
     id 7 
     name rfemur
     direction -0.34202 -0.939693 0   
     length 7.74806   
     axis 0 0 -20   XYZ
    dof rx ry rz
    limits (-160.0 20.0)
           (-70.0 70.0)
           (-70.0 60.0)
  end
  begin
     id 8 
     name rtibia
     direction -0.34202 -0.939693 0   
     length 8.74432   
     axis 0 0 -20   XYZ
    dof rx
    limits (-10.0 170.0)
 end
 begin
     id 9 
     name rfoot
     direction -0.108514 -0.298139 0.948334   
     length 2.66102  
     axis -90 -7.62852e-016 -20   XYZ
    dof rx rz
    limits (-45.0 90.0)
           (-20.0 70.0)
  end
  begin
     id 10 
     name rtoes
     direction -1.53392e-011 -4.22077e-011 1   
     length 1.31983   
     axis -90 -7.62852e-016 -20   XYZ
    dof rx
    limits (-90.0 20.0)
  end
  begin
     id 11 
     name lowerback
     direction 0.0113257 0.999866 0.0118602   
     length 2.58694   
     axis 0 0 0   XYZ
    dof rx ry rz
    limits (-20.0 45.0)
           (-30.0 30.0)
           (-30.0 30.0)
  end
  begin
     id 12 
     name upperback
     direction -0.0164747 0.995193 -0.0965375   
     length 2.52368   
     axis 0 0 0   XYZ
    dof rx ry rz
    limits (-20.0 45.0)
           (-30.0 30.0)
           (-30.0 30.0)
  end
  begin
     id 13 
     name thorax
     direction -0.0194301 0.99433 -0.104552   
     length 2.56099   
     axis 0 0 0   XYZ
    dof rx ry rz
    limits (-20.0 45.0)
           (-30.0 30.0)
           (-30.0 30.0)
  end
  begin
     id 14 
     name lowerneck
     direction 0.0148543 0.995587 -0.092657   
     length 1.71582   
     axis 0 0 0   XYZ
    dof rx ry rz
    limits (-20.0 45.0)
           (-30.0 30.0)
           (-30.0 30.0)
  end
  begin
     id 15 
     name upperneck
     direction -0.0135467 0.993656 -0.111639   
     length 1.68937   
     axis 0 0 0   XYZ
    dof rx ry rz
    limits (-20.0 45.0)
           (-30.0 30.0)
           (-30.0 30.0)
  end
  begin
     id 16
     name head
     direction -0.00615349 0.999547 -0.029448  
     length 1.7462  
     axis 0 0 0   XYZ
    dof rx ry rz
    limits (-20.0 45.0)
           (-30.0 30.0)
           (-30.0 30.0)
  end
  begin
     id 17 
     name lclavicle
     direction 0.988267 0.149885 0.0293713  
     length 4.47222  
     axis 0 0 0   XYZ
    dof ry rz
    limits (-20.0 10.0)
           (0.0 20.0)
  end
  begin
     id 18 
     name lhumerus
     direction 1 -4.48986e-011 -1.14833e-027   
     length 5.37148   
     axis 180 -30 -90   XYZ
    dof rx ry rz
    limits (-60.0 90.0)
           (-90.0 90.0)
           (-90.0 90.0)
  end
  begin
     id 19
     name lradius
     direction 0.999998 0.00170963 -0.000987055   
     length 3.94212   
     axis 180 -30 -90   XYZ
    dof rx
    limits (-10.0 170.0)
  end
  begin
     id 20
     name lwrist
     direction 0.999998 7.53149e-005 -0.00194706   
     length 1.97106   
     axis 4.65056e-015 90 90   XYZ
    dof ry
    limits (-180.0 0.0)
 end
  begin
     id 21 
     name lhand
     direction 1 -4.48973e-011 -1.31746e-026   
     length 1.17917   
     axis 8.4065e-015 90 90   XYZ
    dof rx rz
    limits (-90.0 90.0)
           (-45.0 45.0)
  end
  begin
     id 22 
     name lfingers
     direction 1 -4.49107e-011 -2.63492e-026   
     length 0.950679   
     axis 1.6813e-014 90 90   XYZ
    dof rx
    limits (0.0 90.0)
  end
  begin
     id 23
     name lthumb
     direction 0.707107 -6.35048e-011 0.707107   
     length 1.36499   
     axis -90 45 2.85299e-015   XYZ
    dof rx rz
    limits (-45.0 45.0)
           (-45.0 45.0)
  end
  begin
     id 24 
     name rclavicle
     direction -0.996699 0.0642895 -0.0495725   
     length 4.62611  
     axis 0 0 0   XYZ 
    dof ry rz
    limits (-10.0 20.0)
           (-20.0 0.0)
  end
  begin
     id 25 
     name rhumerus
     direction -1 -4.48919e-011 -2.41059e-027  
     length 5.4981   
     axis 180 30 90   XYZ
    dof rx ry rz
    limits (-90.0 60.0)
           (-90.0 90.0)
           (-90.0 90.0)
  end
  begin
     id 26 
     name rradius
     direction -0.999999 0.00118101 -0.000681858   
     length 3.48381   
     axis 180 30 90   XYZ
    dof rx
    limits (-10.0 170.0)
  end
  begin
     id 27 
     name rwrist
     direction -0.999999 0.000321823 -0.00132288   
     length 1.7419   
     axis 4.65056e-015 -90 -90   XYZ
    dof ry
    limits (-180.0 0.0)
  end
  begin
     id 28
     name rhand
     direction -1 -4.49022e-011 -1.31746e-026   
     length 1.34932   
     axis 8.4065e-015 -90 -90   XYZ
    dof rx rz
    limits (-90.0 90.0)
           (-45.0 45.0)
  end
  begin
     id 29
     name rfingers
     direction -1 -4.49178e-011 -2.63492e-026   
     length 1.08785   
     axis 1.6813e-014 -90 -90   XYZ
    dof rx
    limits (0.0 90.0)
  end
  begin
     id 30
     name rthumb
     direction -0.707107 -6.34713e-011 0.707107   
     length 1.56195   
     axis -90 -45 -2.85299e-015   XYZ
    dof rx rz
    limits (-45.0 45.0)
           (-45.0 45.0)
  end
:hierarchy
  begin
    root lhipjoint rhipjoint lowerback
    lhipjoint lfemur
    lfemur ltibia
    ltibia lfoot
    lfoot ltoes
    rhipjoint rfemur
    rfemur rtibia
    rtibia rfoot
    rfoot rtoes
    lowerback upperback
    upperback thorax
    thorax lowerneck lclavicle rclavicle
    lowerneck upperneck
    upperneck head
    lclavicle lhumerus
    lhumerus lradius
    lradius lwrist
    lwrist lhand lthumb
    lhand lfingers
    rclavicle rhumerus
    rhumerus rradius
    rradius rwrist
    rwrist rhand rthumb
    rhand rfingers
  end

#!OML:ASF X:\für Bonn\!DataBase\2005_08_10_Bjorn_Final\c3d\bjorn.ASF
:FULLY-SPECIFIED
:DEGREES
1
root 20.8346 19.2913 0.166207 1068.81 -78.6775 -351.909
lowerback 2.11773 1.03292 8.75471
upperback 11.1777 0.432097 1.6764
thorax 10.9562 0.751887 -3.06344
lowerneck 0.279236 -2.2254 4.7364
upperneck 26.5703 -2.82176 -7.02249
head 7.94024 -1.80665 -3.39464
rclavicle 4.21423e-014 -1.74931e-014
rhumerus -22.4645 -15.7579 -81.4323
rradius 29.009
rwrist -1.81218
rhand -15.3143 10.7006
rfingers 7.12502
rthumb 10.8616 -18.9985
lclavicle 4.21423e-014 -1.74931e-014
lhumerus -29.3188 5.80163 86.8435
lradius 20.5388
lwrist -37.0599
lhand -7.53206 -4.40418
lfingers 7.12502
lthumb 18.359 24.7494
rfemur -16.4982 -13.6861 14.8609
rtibia 29.6304
rfoot -3.19317 12.8534
rtoes -6.79926
lfemur -5.37364 6.10859 -17.4807
ltibia 57.5523
lfoot -0.0299138 2.32967
ltoes -8.46428
2
root 20.7437 19.3018 0.162082 1068.84 -78.6923 -351.847
lowerback 2.27849 1.14781 8.89841
upperback 11.2209 0.597758 1.61654
thorax 10.9404 0.849387 -3.19599
lowerneck 0.436426 -2.26404 4.77167
upperneck 26.501 -2.86055 -7.06248
head 7.88436 -1.82142 -3.40998
rclavicle 2.54444e-014 4.77083e-014
rhumerus -22.2356 -15.0753 -81.5394
rradius 29.5391
rwrist -2.15451
rhand -15.6031 10.7209
rfingers 7.12502
rthumb 10.5831 -18.9926
lclavicle 2.54444e-014 4.77083e-014
lhumerus -29.5227 5.2185 86.8443
lradius 20.8854
lwrist -36.0562
lhand -7.62671 -4.49116
lfingers 7.12502
lthumb 18.268 24.671
rfemur -16.2862 -13.9045 14.8801
rtibia 29.6232
rfoot -3.39508 13.1132
rtoes -6.76924
lfemur -6.45779 6.63224 -17.6158
ltibia 57.2988
lfoot -0.76722 1.56187
ltoes -10.5444
3
root 20.6535 19.3093 0.158746 1068.77 -78.6994 -351.69
lowerback 2.41428 1.2622 9.01949
upperback 11.2822 0.759932 1.54744
thorax 10.9609 0.945267 -3.32602
lowerneck 0.532261 -2.29948 4.81585
upperneck 26.4781 -2.89515 -7.11291
head 7.85507 -1.83504 -3.43314
rclavicle -3.73715e-014 -3.49861e-014
rhumerus -21.9665 -14.4385 -81.6404
rradius 30.0315
rwrist -2.54716
rhand -15.8819 10.7364
rfingers 7.12502
rthumb 10.3141 -18.9906
lclavicle -3.73715e-014 -3.49861e-014
lhumerus -29.7203 4.79572 86.7812
lradius 21.2733
lwrist -35.2135
lhand -7.77053 -4.66857
lfingers 7.12502
lthumb 18.1296 24.5065
rfemur -16.1144 -14.1123 14.8718
rtibia 29.6802
rfoot -3.67132 13.3535
rtoes -6.93008
lfemur -7.51282 7.14124 -17.7937
ltibia 56.9283
lfoot -1.52952 0.893207
ltoes -12.9413
4
root 20.5648 19.3123 0.155512 1068.71 -78.6986 -351.542
lowerback 2.54279 1.38058 9.14416
upperback 11.3418 0.928224 1.46776
thorax 10.9866 1.04563 -3.4692
lowerneck 0.671184 -2.34436 4.9005
upperneck 26.4288 -2.94331 -7.1673
head 7.80743 -1.85101 -3.46332
rclavicle -2.10712e-014 -1.59028e-015
rhumerus -21.7039 -13.9635 -81.7236
rradius 30.4834
rwrist -2.77187
rhand -16.0994 10.8536
rfingers 7.12502
rthumb 10.1043 -18.8838
lclavicle -2.10712e-014 -1.59028e-015
lhumerus -29.9219 4.36794 86.7288
lradius 21.6657
lwrist -34.3383
lhand -7.99663 -4.86803
lfingers 7.12502
lthumb 17.9121 24.3271
rfemur -15.9717 -14.3151 14.8561
rtibia 29.7988
rfoot -3.92829 13.614
rtoes -6.82853
lfemur -8.52555 7.65654 -17.9706
ltibia 56.4534
lfoot -2.29754 0.2877
ltoes -15.2885
5
root 20.4776 19.3131 0.152484 1068.49 -78.6808 -351.231
lowerback 2.68419 1.5027 9.23477
upperback 11.4077 1.10553 1.3702
thorax 11.013 1.14868 -3.61276
lowerneck 0.798695 -2.40484 5.04099
upperneck 26.3775 -3.0076 -7.26246
head 7.75791 -1.87278 -3.51767
rclavicle 2.22639e-014 1.27222e-014
rhumerus -21.4193 -13.497 -81.8088
rradius 30.9101
rwrist -3.06116
rhand -16.3091 10.9372
rfingers 7.12502
rthumb 9.90198 -18.81
lclavicle 2.22639e-014 1.27222e-014
lhumerus -30.1482 3.94182 86.6703
lradius 22.1238
lwrist -33.5133
lhand -8.3311 -5.14023
lfingers 7.12502
lthumb 17.5902 24.084
rfemur -15.8534 -14.5419 14.802
rtibia 29.9592
rfoot -4.20429 13.858
rtoes -6.73014
lfemur -9.49879 8.155 -18.1945
ltibia 55.8971
lfoot -2.9911 -0.172457
ltoes -16.6242
6
root 20.391 19.314 0.149583 1068.36 -78.6774 -351.007
lowerback 2.77372 1.62185 9.31748
upperback 11.5038 1.26706 1.2965
thorax 11.1044 1.2443 -3.72573
lowerneck 0.873263 -2.44346 5.09272
upperneck 26.3258 -3.0492 -7.29471
head 7.72244 -1.88671 -3.53547
rclavicle -4.37326e-015 2.54444e-014
rhumerus -21.0332 -13.0293 -81.8602
rradius 31.2387
rwrist -3.29407
rhand -16.4547 11.1177
rfingers 7.12502
rthumb 9.76144 -18.6361
lclavicle -4.37326e-015 2.54444e-014
lhumerus -30.2969 3.59639 86.627
lradius 22.5716
lwrist -32.7128
lhand -8.69825 -5.44607
lfingers 7.12502
lthumb 17.2369 23.8095
rfemur -15.7573 -14.7203 14.7743
rtibia 30.1253
rfoot -4.50159 14.0756
rtoes -6.58681
lfemur -10.4594 8.64454 -18.4075
ltibia 55.2818
lfoot -3.69936 -0.476085
ltoes -17.2792
7
root 20.3065 19.3143 0.145918 1068.22 -78.6775 -350.788
lowerback 2.89848 1.74179 9.39565
upperback 11.6066 1.43356 1.21249
thorax 11.1848 1.34227 -3.84785
lowerneck 1.00149 -2.50489 5.20804
upperneck 26.2355 -3.11773 -7.35968
head 7.66051 -1.90959 -3.57375
rclavicle 1.78906e-014 2.22639e-014
rhumerus -20.6423 -12.6653 -81.9086
rradius 31.5574
rwrist -3.45841
rhand -16.554 11.2978
rfingers 7.12502
rthumb 9.66572 -18.4604
lclavicle 1.78906e-014 2.22639e-014
lhumerus -30.4529 3.17663 86.6013
lradius 23.0904
lwrist -31.7588
lhand -9.08656 -5.63996
lfingers 7.12502
lthumb 16.8631 23.6479
rfemur -15.634 -14.838 14.7439
rtibia 30.2866
rfoot -4.80409 14.2312
rtoes -6.48303
lfemur -11.3898 9.16006 -18.606
ltibia 54.6242
lfoot -4.45647 -0.689097
ltoes -17.5915
8
root 20.2233 19.3173 0.142322 1068.17 -78.706 -350.635
lowerback 2.98804 1.87073 9.47473
upperback 11.7185 1.60647 1.13582
thorax 11.2995 1.44451 -3.96093
lowerneck 1.08581 -2.5425 5.29681
upperneck 26.1389 -3.15987 -7.3838
head 7.6077 -1.91889 -3.59311
rclavicle -1.98785e-014 1.43125e-014
rhumerus -20.1938 -12.3992 -81.9484
rradius 31.8343
rwrist -3.56896
rhand -16.6171 11.5122
rfingers 7.12502
rthumb 9.60476 -18.2489
lclavicle -1.98785e-014 1.43125e-014
lhumerus -30.5369 2.81279 86.5686
lradius 23.6114
lwrist -30.8274
lhand -9.41195 -5.84047
lfingers 7.12502
lthumb 16.5499 23.4738
rfemur -15.5494 -14.9331 14.7478
rtibia 30.4304
rfoot -5.1023 14.398
rtoes -6.33502
lfemur -12.3685 9.71925 -18.7993
ltibia 53.9149
lfoot -5.30082 -0.685996
ltoes -18.8396
9
root 20.1421 19.3183 0.138763 1067.94 -78.7315 -350.313
lowerback 3.12314 2.00542 9.53428
upperback 11.8292 1.79612 1.02736
thorax 11.3892 1.55449 -4.09801
lowerneck 1.1876 -2.5986 5.41111
upperneck 26.042 -3.23729 -7.36646
head 7.55017 -1.93901 -3.60422
rclavicle 5.1684e-015 -1.43125e-014
rhumerus -19.7778 -12.2108 -82.005
rradius 32.1253
rwrist -3.65777
rhand -16.6475 11.7022
rfingers 7.12502
rthumb 9.57549 -18.0602
lclavicle 5.1684e-015 -1.43125e-014
lhumerus -30.576 2.59381 86.4534
lradius 24.0935
lwrist -30.1293
lhand -9.75367 -6.06905
lfingers 7.12502
lthumb 16.2208 23.2723
rfemur -15.4302 -14.9607 14.7084
rtibia 30.5651
rfoot -5.42279 14.5047
rtoes -6.27203
lfemur -13.2916 10.2691 -19.0325
ltibia 53.1317
lfoot -6.23114 -0.458384
ltoes -20.5565
10
root 20.0626 19.3197 0.134387 1067.95 -78.7956 -350.242
lowerback 3.26201 2.14179 9.62656
upperback 11.9475 1.98347 0.941601
thorax 11.489 1.66529 -4.22872
lowerneck 1.28408 -2.64041 5.47737
upperneck 25.8989 -3.29751 -7.31334
head 7.48127 -1.95193 -3.59259
rclavicle 4.77083e-015 3.81667e-014
rhumerus -19.3165 -12.0417 -82.0364
rradius 32.3747
rwrist -3.72391
rhand -16.6207 11.8644
rfingers 7.12502
rthumb 9.60127 -17.8968
lclavicle 4.77083e-015 3.81667e-014
lhumerus -30.5956 2.40514 86.3588
lradius 24.6187
lwrist -29.4673
lhand -10.0637 -6.24635
lfingers 7.12502
lthumb 15.9223 23.1191
rfemur -15.3346 -14.9542 14.7396
rtibia 30.6989
rfoot -5.71253 14.5736
rtoes -6.03761
lfemur -14.173 10.8332 -19.1835
ltibia 52.2656
lfoot -7.10934 -0.107295
ltoes -21.5597
11
root 19.9845 19.3184 0.129958 1067.83 -78.8828 -350.049
lowerback 3.40913 2.2797 9.66664
upperback 12.1058 2.16877 0.865917
thorax 11.6281 1.77084 -4.31923
lowerneck 1.3212 -2.65963 5.48303
upperneck 25.7446 -3.33312 -7.21178
head 7.42348 -1.95478 -3.55424
rclavicle 2.70347e-014 4.92986e-014
rhumerus -18.7836 -11.859 -82.0575
rradius 32.6079
rwrist -3.8081
rhand -16.561 12.0756
rfingers 7.12502
rthumb 9.65896 -17.683
lclavicle 2.70347e-014 4.92986e-014
lhumerus -30.5492 2.31049 86.2654
lradius 25.1852
lwrist -29.0034
lhand -10.3027 -6.39699
lfingers 7.12502
lthumb 15.6922 22.9867
rfemur -15.2273 -14.8892 14.7459
rtibia 30.851
rfoot -6.04313 14.6445
rtoes -5.95748
lfemur -14.9497 11.3226 -19.3257
ltibia 51.3098
lfoot -7.98607 0.249732
ltoes -21.3814
12
root 19.9091 19.3167 0.125934 1067.73 -78.9647 -349.859
lowerback 3.57857 2.42687 9.75253
upperback 12.2305 2.377 0.742075
thorax 11.7261 1.8944 -4.48778
lowerneck 1.39628 -2.69996 5.56151
upperneck 25.5854 -3.40436 -7.09279
head 7.35442 -1.9665 -3.52334
rclavicle -5.1684e-014 -6.36111e-015
rhumerus -18.283 -11.7906 -82.1361
rradius 32.7921
rwrist -3.74655
rhand -16.5258 12.1671
rfingers 7.12502
rthumb 9.69292 -17.5899
lclavicle -5.1684e-014 -6.36111e-015
lhumerus -30.4939 2.38463 86.0416
lradius 25.7032
lwrist -28.8003
lhand -10.5422 -6.58566
lfingers 7.12502
lthumb 15.4615 22.816
rfemur -15.156 -14.8676 14.7565
rtibia 31.0082
rfoot -6.32795 14.7226
rtoes -5.70699
lfemur -15.6935 11.7411 -19.4579
ltibia 50.2827
lfoot -8.77705 0.606753
ltoes -20.682
13
root 19.835 19.3144 0.122569 1067.69 -79.0651 -349.753
lowerback 3.75598 2.55765 9.81116
upperback 12.3853 2.55667 0.65281
thorax 11.8479 1.99963 -4.60565
lowerneck 1.46688 -2.72208 5.59435
upperneck 25.38 -3.4402 -7.00423
head 7.27314 -1.96797 -3.4916
rclavicle -6.59965e-014 6.36111e-015
rhumerus -17.7081 -11.5844 -82.2014
rradius 32.9254
rwrist -3.71533
rhand -16.5344 12.1837
rfingers 7.12502
rthumb 9.68454 -17.5737
lclavicle -6.59965e-014 6.36111e-015
lhumerus -30.3107 2.71017 85.8229
lradius 26.0805
lwrist -28.8758
lhand -10.8336 -6.78922
lfingers 7.12502
lthumb 15.1807 22.6339
rfemur -15.0822 -14.8435 14.7833
rtibia 31.1832
rfoot -6.61163 14.8242
rtoes -5.46861
lfemur -16.3645 12.173 -19.5549
ltibia 49.1986
lfoot -9.49353 0.856728
ltoes -20.1155
